<svg width="2000" height="104" viewBox="0 0 2000 104" fill="none" xmlns="http://www.w3.org/2000/svg">
<g clip-path="url(#clip0_8_36)">
<rect width="2000" height="104" fill="white"/>
<rect y="10" width="2000" height="84" fill="#F9F3E8"/>
<rect width="2000" height="10" fill="#F55A38"/>
<rect y="94" width="2000" height="10" fill="#F55A38"/>
<line y1="23.75" x2="2000" y2="23.75" stroke="black" stroke-width="0.5"/>
<line y1="37.75" x2="2000" y2="37.75" stroke="black" stroke-width="0.5"/>
<line y1="51.75" x2="2000" y2="51.75" stroke="black" stroke-width="0.5"/>
<line y1="65.75" x2="2000" y2="65.75" stroke="black" stroke-width="0.5"/>
<line y1="79.75" x2="2000" y2="79.75" stroke="black" stroke-width="0.5"/>
<line x1="50.25" y1="10" x2="50.25" y2="94" stroke="black" stroke-width="0.5"/>
<line x1="100.25" y1="10" x2="100.25" y2="94" stroke="black" stroke-width="0.5"/>
<line x1="150.25" y1="10" x2="150.25" y2="94" stroke="black" stroke-width="0.5"/>
<line x1="200.25" y1="10" x2="200.25" y2="94" stroke="black" stroke-width="0.5"/>
<line x1="250.25" y1="10" x2="250.25" y2="94" stroke="black" stroke-width="0.5"/>
<line x1="300.25" y1="10" x2="300.25" y2="94" stroke="black" stroke-width="0.5"/>
<line x1="450.25" y1="10" x2="450.25" y2="94" stroke="black" stroke-width="0.5"/>
<line x1="500.25" y1="10" x2="500.25" y2="94" stroke="black" stroke-width="0.5"/>
<line x1="550.25" y1="10" x2="550.25" y2="94" stroke="black" stroke-width="0.5"/>
<line x1="600.25" y1="10" x2="600.25" y2="94" stroke="black" stroke-width="0.5"/>
<line x1="700.25" y1="10" x2="700.25" y2="94" stroke="black" stroke-width="0.5"/>
<line x1="650.25" y1="10" x2="650.25" y2="94" stroke="black" stroke-width="0.5"/>
<line x1="850.25" y1="10" x2="850.25" y2="94" stroke="black" stroke-width="0.5"/>
<line x1="800.25" y1="10" x2="800.25" y2="94" stroke="black" stroke-width="0.5"/>
<line x1="750.25" y1="10" x2="750.25" y2="94" stroke="black" stroke-width="0.5"/>
<line x1="900.25" y1="10" x2="900.25" y2="94" stroke="black" stroke-width="0.5"/>
<line x1="950.25" y1="10" x2="950.25" y2="94" stroke="black" stroke-width="0.5"/>
<line x1="1000.25" y1="10" x2="1000.25" y2="94" stroke="black" stroke-width="0.5"/>
<line x1="1050.25" y1="10" x2="1050.25" y2="94" stroke="black" stroke-width="0.5"/>
<line x1="1100.25" y1="10" x2="1100.25" y2="94" stroke="black" stroke-width="0.5"/>
<line x1="1150.25" y1="10" x2="1150.25" y2="94" stroke="black" stroke-width="0.5"/>
<line x1="1200.25" y1="10" x2="1200.25" y2="94" stroke="black" stroke-width="0.5"/>
<line x1="1300.25" y1="10" x2="1300.25" y2="94" stroke="black" stroke-width="0.5"/>
<line x1="1350.25" y1="10" x2="1350.25" y2="94" stroke="black" stroke-width="0.5"/>
<line x1="1250.25" y1="10" x2="1250.25" y2="94" stroke="black" stroke-width="0.5"/>
<line x1="1450.25" y1="10" x2="1450.25" y2="94" stroke="black" stroke-width="0.5"/>
<line x1="1400.25" y1="10" x2="1400.25" y2="94" stroke="black" stroke-width="0.5"/>
<line x1="1300.25" y1="10" x2="1300.25" y2="94" stroke="black" stroke-width="0.5"/>
<line x1="1500.25" y1="10" x2="1500.25" y2="94" stroke="black" stroke-width="0.5"/>
<line x1="1550.25" y1="10" x2="1550.25" y2="94" stroke="black" stroke-width="0.5"/>
<line x1="1600.25" y1="10" x2="1600.25" y2="94" stroke="black" stroke-width="0.5"/>
<line x1="1700.25" y1="10" x2="1700.25" y2="94" stroke="black" stroke-width="0.5"/>
<line x1="1650.25" y1="10" x2="1650.25" y2="94" stroke="black" stroke-width="0.5"/>
<line x1="1750.25" y1="10" x2="1750.25" y2="94" stroke="black" stroke-width="0.5"/>
<line x1="1800.25" y1="10" x2="1800.25" y2="94" stroke="black" stroke-width="0.5"/>
<line x1="1850.25" y1="10" x2="1850.25" y2="94" stroke="black" stroke-width="0.5"/>
<line x1="1900.25" y1="10" x2="1900.25" y2="94" stroke="black" stroke-width="0.5"/>
<line x1="1950.25" y1="10" x2="1950.25" y2="94" stroke="black" stroke-width="0.5"/>
<line x1="400.25" y1="10" x2="400.25" y2="94" stroke="black" stroke-width="0.5"/>
<line x1="350.25" y1="10" x2="350.25" y2="94" stroke="black" stroke-width="0.5"/>
<rect y="1.5" width="2000" height="2" fill="url(#paint0_linear_8_36)"/>
<rect y="100" width="2000" height="2" fill="url(#paint1_linear_8_36)"/>
<g filter="url(#filter0_d_8_36)">
<rect y="96" width="2000" height="2" fill="url(#paint2_linear_8_36)"/>
</g>
<rect y="5.5" width="2000" height="2" fill="url(#paint3_linear_8_36)"/>
</g>
<defs>
<filter id="filter0_d_8_36" x="-4" y="96" width="2008" height="10" filterUnits="userSpaceOnUse" color-interpolation-filters="sRGB">
<feFlood flood-opacity="0" result="BackgroundImageFix"/>
<feColorMatrix in="SourceAlpha" type="matrix" values="0 0 0 0 0 0 0 0 0 0 0 0 0 0 0 0 0 0 127 0" result="hardAlpha"/>
<feOffset dy="4"/>
<feGaussianBlur stdDeviation="2"/>
<feComposite in2="hardAlpha" operator="out"/>
<feColorMatrix type="matrix" values="0 0 0 0 0 0 0 0 0 0 0 0 0 0 0 0 0 0 0.25 0"/>
<feBlend mode="normal" in2="BackgroundImageFix" result="effect1_dropShadow_8_36"/>
<feBlend mode="normal" in="SourceGraphic" in2="effect1_dropShadow_8_36" result="shape"/>
</filter>
<linearGradient id="paint0_linear_8_36" x1="1000" y1="1.5" x2="1000" y2="3.5" gradientUnits="userSpaceOnUse">
<stop stop-color="#F55A38"/>
<stop offset="0.442708" stop-color="#FFC700"/>
<stop offset="1" stop-color="#F55A38"/>
</linearGradient>
<linearGradient id="paint1_linear_8_36" x1="1000" y1="100" x2="1000" y2="102" gradientUnits="userSpaceOnUse">
<stop stop-color="#F55A38"/>
<stop offset="0.442708" stop-color="#FFC700"/>
<stop offset="1" stop-color="#F55A38"/>
</linearGradient>
<linearGradient id="paint2_linear_8_36" x1="1000" y1="96" x2="1000" y2="98" gradientUnits="userSpaceOnUse">
<stop stop-color="#F55A38"/>
<stop offset="0.442708" stop-color="#FFC700"/>
<stop offset="1" stop-color="#F55A38"/>
</linearGradient>
<linearGradient id="paint3_linear_8_36" x1="1000" y1="5.5" x2="1000" y2="7.5" gradientUnits="userSpaceOnUse">
<stop stop-color="#F55A38"/>
<stop offset="0.442708" stop-color="#FFC700"/>
<stop offset="1" stop-color="#F55A38"/>
</linearGradient>
<clipPath id="clip0_8_36">
<rect width="2000" height="104" fill="white"/>
</clipPath>
</defs>
</svg>
